<svg width="40" height="40" viewBox="0 0 40 40" fill="none" xmlns="http://www.w3.org/2000/svg">
<g clip-path="url(#clip0_124_18748)">
<rect x="0.1" y="0.1" width="39.8" height="39.8" stroke="#232323" stroke-width="0.2"/>
<path d="M14.6753 29.8428L14.6796 29.5928L14.783 23.572L14.7873 23.322L15.0318 23.27L23.4173 21.4852C24.2143 21.3156 24.8743 21.4731 25.3774 21.9602C25.913 22.4046 26.1702 23.0571 26.1557 23.8966L26.147 24.4069C26.1325 25.2491 25.8492 26.0321 25.2954 26.7407L14.6753 29.8428ZM14.6753 29.8428L14.9198 29.7908M14.6753 29.8428L14.9198 29.7908M14.9198 29.7908L23.3052 28.006M14.9198 29.7908L23.3052 28.006M23.3052 28.006C24.0994 27.8369 24.7697 27.4155 25.295 26.7412L23.3052 28.006ZM31.8237 0.441866L31.8237 0.441959L31.8297 0.443635C33.243 0.835651 34.3383 1.58898 35.1222 2.70274L35.1221 2.70277L35.1245 2.70599C35.9402 3.81221 36.3345 5.15426 36.3073 6.73894C36.2708 8.86173 35.7717 10.6667 34.83 12.1697C33.8894 13.6709 32.4898 14.8989 30.6082 15.8465L30.4302 15.9362L30.427 16.1245L30.4235 16.3286L30.4201 16.5278L30.6092 16.5318C32.7384 16.5773 34.3009 17.2022 35.324 18.385C36.3483 19.5691 36.8522 21.3354 36.8114 23.713C36.7805 25.506 36.3155 27.1842 35.4207 28.7547L35.4199 28.7562C34.5567 30.2889 33.3752 31.5951 31.8687 32.6762C30.3612 33.7581 28.712 34.4911 26.9171 34.8731L4.00177 39.7504L4.59634 5.14592L27.2121 0.332318C28.9068 -0.0283736 30.4425 0.00956062 31.8237 0.441866ZM14.9075 16.3266L14.9032 16.5766L15.1477 16.5245L22.7346 14.9097C23.5287 14.7407 24.199 14.3193 24.7243 13.645C25.2784 12.9362 25.5618 12.1531 25.5763 11.3106L25.5851 10.8004C25.599 9.98987 25.3384 9.35514 24.803 8.91261C24.2706 8.43788 23.6141 8.27647 22.8457 8.44001L15.2589 10.0548L15.0144 10.1069L15.0101 10.3568L14.9075 16.3266Z" stroke="#292929" stroke-width="0.5"/>
</g>
<defs>
<clipPath id="clip0_124_18748">
<rect width="40" height="40" fill="white"/>
</clipPath>
</defs>
</svg>
